<?xml version="1.0" standalone="no"?>
<!DOCTYPE svg PUBLIC "-//W3C//DTD SVG 20010904//EN"
 "http://www.w3.org/TR/2001/REC-SVG-20010904/DTD/svg10.dtd">
<svg version="1.0" xmlns="http://www.w3.org/2000/svg"
 width="400.000000pt" height="400.000000pt" viewBox="0 0 400.000000 400.000000"
 preserveAspectRatio="xMidYMid meet">

<g transform="translate(0.000000,400.000000) scale(0.100000,-0.100000)"
fill="#000000" stroke="none">
<path d="M1645 3970 c-71 -10 -162 -19 -200 -19 -141 -2 -377 -38 -496 -77
-41 -13 -110 -42 -152 -64 -153 -78 -220 -134 -282 -233 -23 -37 -44 -54 -94
-79 -63 -31 -151 -99 -177 -136 -17 -24 -87 -257 -114 -377 -55 -249 -81 -551
-79 -950 1 -463 11 -547 83 -720 l25 -60 1 55 c1 30 5 75 8 100 l7 45 12 -30
c6 -16 23 -70 39 -120 33 -107 90 -233 139 -303 19 -28 35 -56 35 -62 0 -6 11
-33 25 -60 14 -27 25 -55 25 -63 0 -7 9 -31 20 -52 12 -23 25 -78 30 -128 12
-107 45 -279 58 -304 5 -10 13 -43 17 -73 19 -145 91 -211 264 -244 111 -21
216 -20 402 4 175 23 246 38 516 108 106 28 221 56 255 62 82 15 127 34 348
145 206 103 330 172 498 279 156 99 204 127 208 124 10 -10 -42 -171 -78 -243
-23 -46 -40 -87 -37 -90 3 -3 19 0 35 6 31 11 88 91 126 176 l21 48 17 -40 c9
-22 25 -83 35 -135 10 -52 21 -98 24 -102 4 -5 20 58 36 138 23 115 32 143 40
129 5 -10 24 -38 41 -64 17 -25 47 -77 68 -116 21 -38 42 -74 47 -80 7 -7 8
36 4 123 -3 72 -4 132 -1 132 2 0 17 -19 33 -42 38 -57 106 -148 109 -145 1 1
-2 22 -6 47 -5 25 -9 59 -9 75 l0 30 22 -27 c13 -16 25 -28 27 -28 3 0 3 49 2
110 -3 75 0 110 7 110 6 0 11 -4 11 -8 0 -4 13 -23 30 -42 27 -32 25 -26 -22
80 -28 63 -56 121 -63 128 -9 10 -9 25 3 68 13 47 21 58 63 85 61 39 146 131
181 195 31 57 54 142 63 234 23 228 57 465 71 492 11 22 14 43 9 74 -3 23 -1
128 5 232 18 296 -6 530 -75 716 -74 201 -268 498 -427 653 -198 195 -311 234
-873 303 -250 31 -776 36 -960 10z m-779 -607 c-4 -27 -11 -93 -16 -148 -15
-175 -80 -790 -84 -800 -3 -5 -5 -1 -5 10 -2 32 -21 197 -27 233 -6 32 -7 31
-100 -100 l-94 -131 0 184 c0 101 -4 190 -8 196 -5 9 -29 -16 -70 -74 l-62
-87 0 38 c0 104 22 183 108 380 l87 200 5 -233 5 -233 87 203 c47 112 106 250
129 307 24 56 45 102 47 102 2 0 1 -21 -2 -47z m2251 -56 c45 -91 138 -237
150 -237 3 0 3 61 -1 135 -4 74 -3 135 1 135 5 0 60 -76 122 -170 63 -93 118
-170 122 -170 4 0 10 12 13 28 3 15 11 54 17 87 l13 60 7 -50 c4 -27 13 -102
19 -165 33 -334 40 -408 45 -435 10 -59 -14 -7 -101 212 -48 123 -90 221 -92
219 -2 -3 1 -89 7 -193 6 -103 13 -233 16 -288 l5 -100 -19 42 c-11 23 -22 63
-26 90 -13 96 -37 149 -105 230 -5 6 -33 69 -61 139 -79 199 -75 197 -82 53
-4 -68 -10 -200 -13 -294 -4 -93 -10 -179 -15 -190 -6 -17 -8 -15 -9 10 -2 71
-78 787 -84 793 -3 2 -33 -55 -67 -127 -34 -72 -64 -130 -66 -127 -2 2 16 59
41 127 24 68 57 161 72 206 15 45 32 79 36 77 5 -3 29 -47 55 -97z m-1192
-342 c260 -27 524 -62 578 -76 63 -17 126 -133 143 -262 5 -43 -26 -217 -39
-218 -10 -1 -323 27 -516 46 -29 3 -146 5 -260 5 -244 0 -491 -21 -671 -56
-21 -5 -23 -4 -7 6 9 6 17 23 17 38 1 73 23 76 555 76 355 0 481 -4 596 -17
80 -10 158 -21 175 -25 16 -4 41 -6 55 -4 24 3 27 8 33 64 3 34 6 103 6 154
l0 92 -87 32 c-158 57 -315 80 -563 82 -205 1 -594 -32 -615 -53 -5 -5 -24 -9
-42 -9 -30 0 -33 3 -33 28 0 28 2 29 118 56 258 60 326 65 557 41z m-695 -108
c0 -7 -7 -22 -15 -33 -16 -20 -16 -18 0 31 5 18 15 20 15 2z m510 -32 c0 -13
-45 -95 -53 -95 -4 0 -6 -4 -3 -8 3 -5 -15 -9 -40 -11 -57 -3 -287 18 -296 27
-4 4 -3 23 1 42 6 32 10 35 51 41 55 7 340 11 340 4z m220 -15 c0 -10 -26 -20
-34 -13 -14 14 -5 31 14 26 11 -3 20 -9 20 -13z m205 -5 c66 -8 129 -15 139
-15 17 0 18 -6 13 -66 -4 -37 -8 -69 -11 -71 -2 -2 -85 3 -184 11 -99 9 -187
16 -196 16 -8 0 -23 14 -33 30 -21 36 -55 39 -76 7 -12 -19 -22 -22 -51 -19
-41 5 -45 20 -13 50 49 46 127 55 171 21 25 -19 30 -20 53 -8 14 8 33 24 42
36 9 12 18 22 21 22 3 1 59 -6 125 -14z m-871 -12 c-3 -10 -22 -65 -42 -123
-26 -73 -42 -106 -55 -108 -26 -5 -22 45 14 154 30 89 33 94 59 94 22 0 27 -4
24 -17z m1193 -33 c46 -10 53 -15 66 -48 13 -33 13 -45 -2 -110 -15 -70 -17
-73 -41 -67 -14 4 -40 9 -59 12 -24 4 -39 15 -53 39 -11 18 -19 37 -19 41 0 4
-7 12 -15 16 -10 6 -14 27 -14 74 l0 66 43 -6 c23 -3 65 -11 94 -17z m-899
-90 c35 0 41 -10 17 -30 -8 -7 -15 -16 -15 -20 0 -11 191 -38 237 -33 31 4 50
13 66 32 l23 27 198 -4 198 -5 35 -30 c19 -16 30 -33 26 -36 -4 -4 -66 -4
-138 -1 -71 3 -245 1 -385 -3 -140 -5 -313 -9 -385 -10 l-130 -2 3 65 c1 36 4
70 6 76 3 7 37 4 107 -8 57 -9 119 -17 137 -18z m267 30 c3 -5 -1 -10 -10 -10
-9 0 -13 5 -10 10 3 6 8 10 10 10 2 0 7 -4 10 -10z m-155 -60 c12 -23 11 -24
-24 -10 -31 11 -34 30 -6 30 10 0 24 -9 30 -20z m145 10 c18 0 18 -1 3 -16
-19 -19 -69 -12 -90 13 -12 15 -9 16 27 10 22 -4 49 -7 60 -7z m901 -199 c8
-40 13 -75 11 -78 -9 -8 -59 10 -64 24 -6 15 15 162 26 178 3 6 7 -3 9 -20 2
-16 10 -63 18 -104z m634 -88 c4 -54 4 -143 0 -198 l-7 -100 -1 111 c-1 61 -5
153 -8 205 -4 52 -3 91 1 87 5 -5 11 -52 15 -105z m-2370 38 c0 -11 -4 -23
-10 -26 -6 -4 -10 5 -10 19 0 14 5 26 10 26 6 0 10 -9 10 -19z m874 -33 c-5
-8 0 -9 17 -3 37 13 448 17 551 6 93 -11 140 -29 270 -103 79 -45 51 -4 -32
49 -44 29 -20 30 65 5 58 -18 60 -19 68 -61 6 -30 5 -46 -3 -51 -8 -5 -7 -10
4 -19 9 -8 17 -40 21 -89 4 -42 9 -85 11 -95 4 -11 -2 -20 -18 -26 -13 -6 -18
-10 -11 -10 27 -2 43 -33 43 -84 l0 -52 -57 -22 c-148 -57 -176 -55 -340 24
-52 25 -97 43 -100 40 -11 -12 32 -80 74 -117 55 -48 86 -55 229 -54 90 0 118
4 152 21 l41 20 6 -28 c14 -63 0 -82 -88 -126 -168 -84 -405 -176 -538 -209
-249 -61 -520 -89 -799 -81 -266 7 -367 37 -463 134 -31 32 -42 56 -65 138
-36 130 -48 133 -85 18 -66 -212 -91 -359 -86 -514 4 -100 7 -121 32 -169 15
-30 56 -85 90 -122 59 -62 72 -71 174 -112 219 -88 238 -91 503 -90 212 1 248
3 368 27 272 54 425 108 630 222 218 121 406 310 518 525 l29 55 3 -35 c2 -19
2 -138 0 -265 l-3 -230 -53 -76 c-65 -96 -92 -113 -537 -347 -267 -140 -424
-214 -442 -208 -7 3 -62 -7 -121 -23 -208 -57 -587 -120 -837 -141 -178 -14
-335 12 -407 67 -86 65 -120 230 -98 465 7 79 14 276 14 438 l1 295 -28 59
c-15 33 -26 61 -24 63 4 4 58 -15 122 -42 47 -20 45 -17 -22 33 -129 96 -159
134 -148 189 13 72 110 223 143 223 26 0 19 -30 -12 -48 -24 -14 -35 -29 -38
-51 -5 -35 7 -52 16 -23 4 10 19 31 35 46 l29 28 17 -26 c12 -18 16 -37 12
-60 -5 -32 -3 -34 26 -39 18 -2 37 0 44 5 6 5 47 10 89 11 l78 2 16 -33 c21
-44 35 -52 94 -52 67 0 156 53 156 93 0 14 -46 14 -74 0 -32 -15 -35 -14 -106
23 -69 35 -80 38 -180 42 l-106 4 -12 56 c-8 37 -8 60 -2 66 6 6 40 12 78 14
37 2 72 9 77 14 7 7 -5 8 -37 4 -26 -4 -65 -2 -88 4 l-42 11 6 47 c4 26 14 91
23 146 16 95 18 99 48 111 24 11 189 35 235 35 15 0 12 -45 -4 -85 -8 -19 -13
-35 -11 -35 3 0 24 18 46 40 28 27 36 40 25 40 -17 0 -21 17 -8 36 4 6 39 14
77 18 237 22 425 35 457 29 24 -3 38 -2 38 5 0 7 31 13 78 15 42 1 94 4 115 5
27 1 36 -1 31 -10z m-1256 -413 c18 -38 16 -41 -40 -106 -56 -63 -98 -132 -98
-161 0 -10 -4 -18 -9 -18 -14 0 -21 58 -10 88 12 33 132 222 140 222 3 0 11
-11 17 -25z m2406 -17 c9 -33 8 -35 -14 -41 -12 -3 -20 0 -20 6 0 23 12 57 20
57 4 0 10 -10 14 -22z m385 2 c105 -53 172 -223 156 -395 -10 -106 -47 -158
-199 -279 -32 -26 -66 -61 -75 -78 -9 -18 -22 -34 -28 -36 -18 -5 -17 57 2
101 8 20 15 54 15 75 0 76 10 100 45 112 22 7 37 21 45 41 17 41 8 205 -14
249 -16 33 -19 99 -7 154 l6 30 44 -50 c41 -46 43 -47 37 -20 -10 39 -42 83
-66 91 -21 7 -28 25 -10 25 6 0 28 -9 49 -20z m-355 -132 c3 -13 6 -34 5 -48
l0 -25 -16 23 c-21 30 -30 28 -47 -12 -14 -33 -90 -95 -102 -83 -6 6 52 125
74 150 8 9 29 17 47 17 25 0 34 -5 39 -22z m-9 -230 c-9 -45 -46 -106 -87
-145 -33 -31 -83 -53 -166 -71 -38 -9 -44 -8 -53 10 -21 40 12 138 46 138 8 0
15 -7 15 -15 0 -24 18 -17 34 12 11 22 36 36 108 65 51 20 97 37 101 37 5 1 6
-14 2 -31z m-405 -168 c0 -17 -50 -111 -77 -149 -34 -45 -71 -58 -184 -66
l-95 -7 -22 50 c-38 87 -41 85 163 132 72 16 144 34 160 39 41 13 55 13 55 1z
m-1685 -168 c-1 -45 -3 -84 -6 -87 -3 -3 -20 0 -38 6 -30 11 -33 15 -28 43 3
17 15 53 26 79 31 71 46 57 46 -41z m145 32 c24 -5 25 -8 25 -85 0 -88 2 -86
-71 -68 l-44 11 0 60 c0 73 13 102 43 94 12 -4 33 -9 47 -12z m1068 -36 c6
-29 14 -62 17 -74 5 -15 0 -23 -22 -34 -30 -14 -148 -36 -250 -46 -61 -7 -63
-6 -73 20 -5 15 -10 49 -10 76 l0 48 78 11 c42 7 109 20 147 30 103 27 99 28
113 -31z m703 -7 c-22 -32 -62 -77 -90 -100 -45 -38 -51 -40 -59 -24 -5 10 -7
35 -4 56 7 60 92 123 170 126 22 1 21 -2 -17 -58z m-1531 -32 c19 -5 51 -9 72
-9 l36 0 4 -57 c2 -32 1 -62 -2 -66 -11 -13 -174 10 -209 30 -30 16 -32 21
-28 56 9 68 23 73 127 46z m413 -61 c12 -38 24 -58 35 -59 34 -3 -95 -17 -164
-18 -47 -1 -75 3 -81 12 -5 6 -8 33 -5 59 4 52 5 52 107 61 85 8 87 7 108 -55z
m883 -15 c3 -16 10 -45 15 -66 6 -20 7 -42 4 -47 -6 -9 -256 -154 -287 -165
-17 -7 -29 31 -44 142 l-6 51 73 22 c41 12 79 29 86 37 13 16 105 52 135 53
11 0 20 -10 24 -27z m-381 -135 c-4 -22 2 -57 19 -106 l25 -72 -22 -15 c-51
-33 -119 -54 -224 -69 -156 -22 -154 -23 -140 14 10 26 8 42 -15 106 l-27 75
22 8 c12 5 76 21 142 36 66 16 136 34 155 41 60 22 72 19 65 -18z m-1229 -101
c26 -41 69 -145 62 -152 -8 -9 -121 30 -126 43 -2 6 5 12 15 12 41 0 45 14 23
69 -24 61 -24 61 -7 61 6 0 21 -15 33 -33z m784 -81 l0 -104 -67 -7 c-38 -3
-82 -8 -99 -11 -29 -4 -31 -1 -52 48 -12 29 -28 72 -36 94 l-14 42 121 20 c67
11 128 20 135 21 9 1 12 -26 12 -103z m-583 60 c5 -5 36 -157 32 -160 -7 -7
-99 6 -99 15 0 4 9 11 20 14 29 9 25 36 -16 95 l-36 53 48 -8 c27 -4 50 -8 51
-9z m232 -16 c16 -8 39 -67 55 -142 l6 -28 -58 0 c-32 0 -65 6 -74 13 -20 16
-62 137 -51 147 18 17 97 24 122 10z"/>
<path d="M1290 2500 c-18 -12 -2 -12 25 0 13 6 15 9 5 9 -8 0 -22 -4 -30 -9z"/>
<path d="M2331 2346 c8 -8 113 -46 116 -42 7 6 -82 46 -102 46 -10 0 -16 -2
-14 -4z"/>
<path d="M1450 2308 c19 -5 45 -19 58 -31 21 -20 23 -20 39 -4 16 16 16 18 -2
32 -12 9 -41 14 -75 14 -54 -1 -54 -1 -20 -11z"/>
<path d="M2005 2295 c-15 -14 -25 -35 -24 -52 0 -24 1 -25 9 -8 4 11 22 30 39
43 17 12 31 27 31 32 0 18 -31 10 -55 -15z"/>
<path d="M1508 2182 c23 -29 29 -44 25 -67 -7 -37 12 -23 22 16 5 19 0 34 -20
57 -40 47 -64 42 -27 -6z"/>
<path d="M2693 2155 c12 -18 24 -32 26 -29 7 7 -21 52 -35 58 -8 3 -5 -8 9
-29z"/>
<path d="M2280 2143 c-55 -9 -130 -38 -230 -89 -114 -57 -150 -85 -150 -112 0
-23 43 -68 97 -102 43 -27 44 -28 91 -13 26 9 103 31 172 49 113 30 138 33
267 34 104 0 143 -3 146 -12 4 -10 6 -10 6 0 1 6 10 12 21 12 11 0 20 5 20 10
0 6 -4 10 -10 10 -5 0 -10 8 -10 17 0 46 -26 86 -83 124 -98 65 -221 91 -337
72z m-14 -100 c0 -16 3 -42 7 -59 l8 -31 -58 -11 c-153 -30 -231 -24 -207 15
27 46 158 110 225 112 22 1 26 -3 25 -26z m356 -39 c16 -18 15 -19 -33 -16
-49 4 -56 11 -43 46 5 13 9 14 32 2 15 -8 35 -22 44 -32z m-97 17 c3 -5 1 -12
-5 -16 -5 -3 -10 1 -10 9 0 18 6 21 15 7z"/>
<path d="M1125 2057 c-34 -16 -85 -71 -85 -92 0 -20 89 -53 176 -64 95 -13
274 -57 288 -71 14 -14 -17 -132 -44 -170 -11 -15 -55 -49 -97 -76 -171 -105
-196 -129 -113 -105 19 6 28 3 36 -11 10 -18 11 -18 37 2 l27 22 67 -62 c74
-69 130 -99 185 -100 40 0 42 2 52 43 6 26 5 27 -34 27 -80 0 -145 53 -157
127 -5 32 -1 39 57 98 l62 63 4 83 3 83 51 19 c27 10 50 22 50 27 0 18 -44 32
-84 27 -38 -6 -43 -4 -63 28 -33 49 -63 66 -161 86 -127 27 -221 32 -257 16z
m115 -77 c0 -5 -12 -10 -26 -10 -14 0 -23 4 -19 10 3 6 15 10 26 10 10 0 19
-4 19 -10z m270 -65 c13 -14 21 -28 17 -31 -10 -10 -65 28 -60 43 7 19 16 16
43 -12z"/>
<path d="M1920 1798 c0 -9 5 -20 11 -23 17 -11 18 -2 3 19 -12 17 -14 17 -14
4z"/>
<path d="M1960 1750 c0 -5 4 -11 8 -14 14 -8 117 -19 110 -11 -11 12 -118 34
-118 25z"/>
<path d="M2150 1706 c0 -3 26 -14 58 -26 31 -11 71 -27 87 -35 87 -39 267
-107 272 -101 20 19 -150 108 -273 141 -81 23 -144 32 -144 21z"/>
<path d="M2000 1624 l-35 -16 51 -18 c87 -30 94 -36 94 -80 0 -30 -6 -43 -27
-60 -22 -17 -25 -23 -13 -30 50 -32 95 -2 105 71 5 36 10 47 19 40 7 -6 18 -4
30 5 11 8 30 14 44 14 13 0 20 4 17 10 -3 6 -19 10 -35 10 -23 0 -31 5 -36 25
-7 28 -24 24 -24 -6 0 -26 -4 -25 -57 16 -50 38 -79 43 -133 19z"/>
<path d="M610 1620 c0 -23 67 -80 95 -80 15 0 24 4 20 10 -3 6 -12 10 -19 10
-7 0 -31 16 -54 36 -23 19 -42 30 -42 24z"/>
<path d="M2360 1556 c0 -2 16 -6 35 -8 19 -2 35 0 35 4 0 4 -16 8 -35 8 -19 0
-35 -2 -35 -4z"/>
<path d="M1818 1498 c-21 -12 -38 -25 -38 -30 0 -15 36 -26 105 -33 39 -3 83
-9 98 -12 27 -5 28 -4 25 33 -3 36 -5 38 -53 51 -69 18 -94 16 -137 -9z"/>
<path d="M2795 714 c-44 -24 -116 -57 -160 -73 -44 -17 -123 -46 -175 -66
-334 -127 -650 -208 -918 -235 -142 -15 -363 -8 -465 14 -217 48 -307 95 -307
162 0 27 -4 34 -20 34 -30 0 -26 -48 8 -85 40 -44 85 -69 187 -104 217 -73
301 -77 675 -25 375 51 584 100 797 189 87 37 196 82 243 102 143 60 270 116
268 118 -2 1 -14 5 -28 8 -18 4 -48 -7 -105 -39z"/>
<path d="M2570 701 c-52 -21 -140 -60 -195 -88 -55 -28 -161 -71 -235 -96
-114 -39 -156 -47 -270 -58 -158 -14 -207 -35 -59 -25 184 12 393 63 554 134
69 30 315 161 315 168 0 7 -13 3 -110 -35z"/>
<path d="M975 524 c75 -64 262 -124 387 -124 57 0 38 16 -29 24 -81 9 -205 47
-295 90 -89 42 -104 45 -63 10z"/>
<path d="M1340 541 c0 -35 153 -52 280 -33 38 6 25 9 -88 20 -74 7 -147 15
-163 19 -19 3 -29 1 -29 -6z"/>
<path d="M1750 530 l-35 -7 37 -2 c20 0 40 4 43 9 7 11 7 11 -45 0z"/>
<path d="M1510 410 c-21 -7 -19 -8 18 -9 23 -1 42 4 42 9 0 12 -24 12 -60 0z"/>
<path d="M3454 1662 c0 -64 -3 -146 -7 -182 -7 -65 -7 -65 10 -35 23 41 33
145 22 233 -14 117 -24 110 -25 -16z"/>
<path d="M3346 1355 c-11 -8 -15 -15 -9 -15 6 0 16 7 23 15 16 19 11 19 -14 0z"/>
</g>
</svg>
